<?xml version="1.0" ?><!DOCTYPE svg  PUBLIC '-//W3C//DTD SVG 1.1//EN'  'http://www.w3.org/Graphics/SVG/1.1/DTD/svg11.dtd'><svg width="512px" height="512px" viewBox="0 0 512 512" style="enable-background:new 0 0 512 512;" version="1.1" xml:space="preserve" xmlns="http://www.w3.org/2000/svg" xmlns:xlink="http://www.w3.org/1999/xlink"><g id="_x37_2_x2C__Bottle_x2C__Beer_x2C__Cup_x2C__Canada"><g><path d="M428.174,131.652c7.792,0,14.131-6.339,14.131-14.131c0-7.792-6.339-14.13-14.131-14.13c-7.791,0-14.13,6.339-14.13,14.13    C414.044,125.313,420.383,131.652,428.174,131.652z"/><path d="M158.523,164.935c-2.084-0.654-3.523-2.586-3.523-4.77V66h-47v94.165c0,2.184-1.439,4.246-3.523,4.9    C77.806,173.442,57.278,193,47.434,218h122.479c2.761,0,5,2.239,5,5s-2.239,5-5,5H45.565c-0.484,0-0.944-0.221-1.387-0.35    C42.108,235.302,41,243.192,41,251.435V256h181v-4.565C222,211.618,196.478,176.856,158.523,164.935z"/><path d="M41,455.174C41,466.657,50.343,476,61.826,476h139.652c11.483,0,20.521-9.343,20.521-20.826V448H41V455.174z"/><path d="M260.782,103.391c-5.154,0-9.348,4.193-9.348,9.348c0,5.154,4.193,9.348,9.348,9.348c5.155,0,9.349-4.193,9.349-9.348    C270.131,107.584,265.938,103.391,260.782,103.391z"/><path d="M280,455c0,11.579,9.552,21,21.131,21h101.043c11.579,0,20.826-9.421,20.826-21v-7H280V455z"/><path d="M171,351c0-19.299-15.701-35-35-35H41v70h95C155.299,386,171,370.299,171,351z"/><polygon points="160.348,56 171,56 171,36 92,36 92,56 102.957,56   "/><path d="M41,306h95c24.813,0,45,20.187,45,45s-20.187,45-45,45H41v42h181V266H41V306z"/><path d="M420.438,226.877c-1.911-0.83-3.106-2.742-3.001-4.823c0.03-0.611,0.047-1.195,0.047-1.814    c0-6.706-1.872-13.18-5.414-18.838c-6.576-10.508-17.892-16.658-30.267-16.658L381.479,185c-0.014,0-0.027,0-0.04,0    c-1.784,0-3.435-1.197-4.328-2.743c-4.436-7.669-11.499-13.639-19.891-16.362c-3.551-1.152-7.256-1.737-11.011-1.737    c-19.657,0-35.652,15.978-35.68,35.628l0.003,0.092c0.029,1.44-0.563,2.822-1.626,3.794c-1.062,0.971-2.492,1.433-3.924,1.279    c-0.684-0.076-1.354-0.114-1.996-0.114c-9.86,0-17.882,8.022-17.882,17.883c0,2.139,0.374,4.232,1.113,6.221    c0.515,1.387,0.39,2.93-0.343,4.215c-0.731,1.285-1.995,2.18-3.45,2.445c-7.287,1.325-12.576,7.887-12.576,15.303    c0,7.19,4.98,13.094,11.668,15.094h135.092c9.206-2,16.131-10.383,16.131-20.171C432.739,237.689,427.911,230.123,420.438,226.877    z"/><path d="M412.314,276H285.189c-1.644,0-3.248,0-4.806,0H280v162h143v-43.087v-86.087V276h-5.435    C415.858,276,414.105,276,412.314,276z M318,404.479c0,2.762-2.238,5-5,5s-5-2.238-5-5v-95.652c0-2.762,2.238-5,5-5s5,2.238,5,5    V404.479z M357,404.479c0,2.762-2.238,5-5,5s-5-2.238-5-5v-95.652c0-2.762,2.238-5,5-5s5,2.238,5,5V404.479z M395,404.479    c0,2.762-2.238,5-5,5s-5-2.238-5-5v-95.652c0-2.762,2.238-5,5-5s5,2.238,5,5V404.479z"/><path d="M433,314v76h3c19.299,0,35-15.788,35-35.087V314H433z"/></g></g><g id="Layer_1"/></svg>