<?xml version="1.0" encoding="iso-8859-1"?>
<!-- Generator: Adobe Illustrator 18.0.0, SVG Export Plug-In . SVG Version: 6.00 Build 0)  -->
<!DOCTYPE svg PUBLIC "-//W3C//DTD SVG 1.1//EN" "http://www.w3.org/Graphics/SVG/1.1/DTD/svg11.dtd">
<svg version="1.1" id="Capa_1" xmlns="http://www.w3.org/2000/svg" xmlns:xlink="http://www.w3.org/1999/xlink" x="0px" y="0px"
	 viewBox="0 0 57 57" style="enable-background:new 0 0 57 57;" xml:space="preserve">
<g>
	<path d="M27,32.854c0-1.07,0.474-2.13,1.335-2.984C30.054,28.165,31,25.902,31,23.5v-7.762c0-3.991-3.247-7.238-7.238-7.238H9
		c-4.962,0-9,4.037-9,9v6c0,2.402,0.946,4.665,2.665,6.37C3.513,30.712,4,31.971,4,33.322v7.15c0,4.427,3.601,8.027,8.027,8.027
		h7.531c4.104,0,7.442-3.339,7.442-7.442V32.854z M5.62,16.293l1.5-1.5c0.391-0.391,1.023-0.391,1.414,0s0.391,1.023,0,1.414
		l-1.5,1.5C6.839,17.902,6.583,18,6.327,18s-0.512-0.098-0.707-0.293C5.229,17.316,5.229,16.684,5.62,16.293z M8.221,25.296
		l-1.688-1.285c-0.439-0.335-0.524-0.962-0.189-1.401c0.334-0.439,0.961-0.525,1.401-0.19l1.688,1.285
		c0.439,0.335,0.524,0.962,0.189,1.401C9.426,25.364,9.128,25.5,8.826,25.5C8.615,25.5,8.402,25.434,8.221,25.296z M9.793,34.293
		l1.5-1.5c0.391-0.391,1.023-0.391,1.414,0s0.391,1.023,0,1.414l-1.5,1.5C11.012,35.902,10.756,36,10.5,36s-0.512-0.098-0.707-0.293
		C9.402,35.316,9.402,34.684,9.793,34.293z M13.795,43.105c-0.197,0.259-0.495,0.395-0.796,0.395c-0.211,0-0.424-0.066-0.605-0.204
		l-1.688-1.285c-0.439-0.335-0.524-0.962-0.189-1.401c0.334-0.439,0.961-0.525,1.401-0.19l1.688,1.285
		C14.045,42.039,14.13,42.666,13.795,43.105z M13.966,21.445c-0.431,0-0.829-0.28-0.958-0.715c-0.157-0.529,0.144-1.086,0.673-1.244
		l2.033-0.604c0.53-0.151,1.087,0.145,1.244,0.674c0.157,0.529-0.144,1.086-0.673,1.244l-2.033,0.604
		C14.157,21.432,14.061,21.445,13.966,21.445z M16.111,26.002c0.334-0.44,0.961-0.525,1.401-0.19l1.688,1.285
		c0.439,0.335,0.524,0.962,0.189,1.401c-0.197,0.259-0.495,0.395-0.796,0.395c-0.211,0-0.424-0.066-0.605-0.204L16.3,27.403
		C15.861,27.068,15.776,26.441,16.111,26.002z M20.458,38.8l-2.033,0.604c-0.095,0.027-0.191,0.041-0.286,0.041
		c-0.431,0-0.829-0.28-0.958-0.715c-0.157-0.529,0.144-1.086,0.673-1.244l2.033-0.604c0.53-0.151,1.086,0.144,1.244,0.674
		C21.289,38.085,20.987,38.642,20.458,38.8z M22.91,16.63c-0.153,0.396-0.532,0.638-0.932,0.638c-0.121,0-0.243-0.021-0.362-0.067
		l-1.978-0.768c-0.515-0.2-0.771-0.779-0.57-1.295c0.199-0.515,0.779-0.77,1.294-0.57l1.978,0.768
		C22.854,15.535,23.11,16.114,22.91,16.63z"/>
	<path d="M48,8.5H29.485C31.622,10.194,33,12.806,33,15.738V23.5c0,2.162-0.63,4.228-1.797,6H34c0.552,0,1,0.447,1,1s-0.448,1-1,1
		h-4.437C29.205,31.926,29,32.397,29,32.854v8.203c0,3.024-1.434,5.713-3.652,7.442h20.498c3.945,0,7.154-3.209,7.154-7.154v-7.795
		c0-1.467,0.538-2.839,1.515-3.864C56.118,28.004,57,25.807,57,23.5v-6C57,12.537,52.962,8.5,48,8.5z M35.943,16.879
		c-0.287-1.039-0.797-2.074-1.517-3.076c-0.487-0.678-0.553-1.559-0.172-2.3c0.382-0.743,1.138-1.205,1.975-1.205h1.206
		c0.55,0,1.067,0.19,1.455,0.536c1.718,1.535,2.16,3.675,1.279,6.19c-0.314,0.896-1.133,1.476-2.086,1.476c0,0,0,0,0,0
		C37.07,18.5,36.211,17.849,35.943,16.879z M48.009,31.5h-9c-0.552,0-1-0.447-1-1s0.448-1,1-1h9c0.552,0,1,0.447,1,1
		S48.561,31.5,48.009,31.5z M49.561,17.024c-0.314,0.896-1.133,1.476-2.086,1.476c0,0,0,0,0,0c-1.012,0-1.871-0.651-2.139-1.621
		c-0.287-1.039-0.797-2.074-1.517-3.076c-0.487-0.678-0.552-1.559-0.172-2.3c0.382-0.743,1.139-1.205,1.976-1.205h1.206
		c0.55,0,1.067,0.19,1.455,0.536C50,12.369,50.442,14.509,49.561,17.024z"/>
</g>
<g>
</g>
<g>
</g>
<g>
</g>
<g>
</g>
<g>
</g>
<g>
</g>
<g>
</g>
<g>
</g>
<g>
</g>
<g>
</g>
<g>
</g>
<g>
</g>
<g>
</g>
<g>
</g>
<g>
</g>
</svg>
